<svg xmlns="http://www.w3.org/2000/svg" viewBox="0 0 50 46.87"><defs><style>.cls-1{fill:#141c28;}</style></defs><g id="Layer_2" data-name="Layer 2"><g id="Layer_1-2" data-name="Layer 1"><g id="Layer_2-2" data-name="Layer 2"><g id="Layer_1-2-2" data-name="Layer 1-2"><path class="cls-1" d="M10.94,0A1.56,1.56,0,0,0,9.6.76L.22,16.38a1.58,1.58,0,0,0,.14,1.81L23.8,46.31A1.57,1.57,0,0,0,26,46.5l.19-.19L49.64,18.19a1.58,1.58,0,0,0,.14-1.81L40.4.76A1.56,1.56,0,0,0,39.06,0ZM4.32,15.62l7.5-12.5H18l-5,12.5ZM13,18.75,20.08,37,4.9,18.75ZM25,41,16.35,18.75h17.3ZM16.37,15.62l5-12.5h7.26l5,12.5Zm20.63,0L32,3.12h6.18l7.5,12.5Zm0,3.13h8.1L29.92,37Z"/></g></g></g></g></svg>